<svg width="512" height="512" xmlns="http://www.w3.org/2000/svg">

 <g>
  <title>background</title>
  <rect fill="none" id="canvas_background" height="402" width="582" y="-1" x="-1"/>
 </g>
 <g>
  <title>Layer 1</title>
  <g stroke="null" id="svg_16">
   <path stroke="null" id="svg_11" d="m181.600161,227.96302l-4.652477,18.682274c-0.172651,0.69785 -0.0159,1.436749 0.424812,2.003464c0.440715,0.565577 1.116551,0.897397 1.83214,0.897397c0.190824,0 0.380514,-0.023945 0.56566,-0.069556l9.304954,-2.335284c1.236948,-0.321557 1.98548,-1.583842 1.674255,-2.829025c-0.310091,-1.245179 -1.562942,-2.004602 -2.805572,-1.702431l-5.540719,1.401398l3.710851,-14.907961c0.22263,-0.817577 -0.012495,-1.691029 -0.614499,-2.285111c-0.603141,-0.592943 -1.477752,-0.811876 -2.28762,-0.572419c-0.809865,0.239457 -1.425502,0.900818 -1.611784,1.727518l0,-0.010264zm0,0"/>
   <path stroke="null" id="svg_12" d="m172.796122,221.598001c-1.244901,-0.316994 -2.510247,0.437866 -2.827153,1.687608c-0.018174,0.07526 -1.986616,7.578272 -7.048003,7.578272s-7.029829,-7.503011 -7.048003,-7.578272c-0.313496,-1.25088 -1.577707,-2.010306 -2.823745,-1.69673c-1.246035,0.314717 -2.002516,1.582704 -1.690158,2.834726c0.114724,0.454969 2.866909,11.110844 11.561906,11.110844c8.695,0 11.447185,-10.655876 11.561906,-11.110844c0.30782,-1.247462 -0.446391,-2.510886 -1.68675,-2.825603zm0,0"/>
   <path stroke="null" id="svg_13" d="m204.79326,235.534449c8.695,0 11.447185,-10.655876 11.561906,-11.110844c0.312362,-1.252022 -0.44412,-2.520008 -1.690158,-2.834726c-1.246035,-0.313576 -2.510247,0.44585 -2.823745,1.69673c-0.018174,0.07526 -1.986616,7.578272 -7.048003,7.578272s-7.029829,-7.503011 -7.048003,-7.578272c-0.313496,-1.25088 -1.577707,-2.010306 -2.823745,-1.69673c-1.246035,0.314717 -2.002516,1.582704 -1.690158,2.834726c0.114724,0.454969 2.866909,11.110844 11.561906,11.110844zm0,0"/>
   <path stroke-width="0" stroke="null" id="svg_15" d="m232.708119,211.18732l0,-14.2945c0,-6.47334 -14.70369,-9.38104 -27.91486,-10.68894l0,-36.01674c0,-3.86896 -3.12475,-7.00585 -6.97871,-7.00585l-27.91487,0c-3.85396,0 -6.97871,3.13689 -6.97871,7.00585l0,36.01674c-13.21118,1.3079 -27.91487,4.2156 -27.91487,10.68894l0,14.2945c-5.30105,1.30333 -9.30495,6.95682 -9.30495,13.72891c0,6.86104 4.11749,12.57268 9.5378,13.77795c2.27172,25.26053 23.36348,44.60872 48.62725,44.60872c25.26491,0 46.35667,-19.34819 48.62838,-44.60872c5.40101,-1.20527 9.5185,-6.91691 9.5185,-13.77795c0,-6.77209 -4.0039,-12.42558 -9.30496,-13.72891zm-97.70202,22.49535c-3.06341,-1.8176 -4.8592,-5.2008 -4.65247,-8.76644c-0.20673,-3.56564 1.58906,-6.94884 4.65247,-8.76643l0,17.53287zm32.56734,-83.49553c0,-1.28965 1.04159,-2.33529 2.32624,-2.33529l27.91487,0c1.28465,0 2.32623,1.04564 2.32623,2.33529l0,42.92681l-15.24436,-7.65239c-0.65425,-0.3284 -1.42436,-0.3284 -2.07862,0l-15.24436,7.65239l0,-42.92681zm60.48221,84.07023c0,24.50566 -19.7878,44.3704 -44.19854,44.3704c-24.4096,0 -44.19853,-19.86474 -44.19853,-44.3704l0,-31.84903c11.88449,6.06968 42.59129,6.1609 44.19853,6.1609c1.60725,0 32.31405,-0.09122 44.19854,-6.1609l0,31.84903zm-44.19854,-30.35869c-27.44916,0 -43.08879,-4.53488 -44.19853,-6.87245l0,-0.04903c0.59746,-1.32956 7.03892,-4.41172 23.26239,-6.07196l0,5.98758c0,0.8096 0.41686,1.56104 1.10292,1.9875c0.68492,0.42533 1.54136,0.4641 2.26263,0.10263l17.57059,-8.82003l17.5706,8.83143c0.72241,0.36261 1.58112,0.3227 2.26831,-0.10604c0.68606,-0.42875 1.10179,-1.18361 1.09724,-1.99549l0,-5.99214c16.3257,1.6762 22.75011,4.77775 23.27829,5.8804c-1.02795,2.55421 -16.68122,7.1176 -44.21444,7.1176zm48.85101,29.78399l0,-17.53287c3.06342,1.81759 4.85921,5.20079 4.65248,8.76643c0.20673,3.56564 -1.58906,6.94884 -4.65248,8.76644z"/>
   <path id="svg_18" d="m172.037954,161.528289l9.011226,0l2.784538,-8.607708l2.78454,8.607708l9.011224,0l-7.290221,5.319795l2.784682,8.607708l-7.290225,-5.31994l-7.290223,5.31994l2.784683,-8.607708l-7.290224,-5.319795z" fill-opacity="null" stroke-width="null" stroke="#000000" fill="null"/>
  </g>
  <path id="svg_17" d="m289.783779,296.216174" opacity="0.5" fill-opacity="null" stroke-width="18" stroke="#000000" fill="none"/>
  <g transform="rotate(-0.779315710067749 350.7365722656266,243.28071594238264) " stroke="null" id="svg_41">
   <g stroke="null" transform="matrix(0.8788409283674266,0,0,0.8788409283674266,-941.8869169315585,-970.4585564642257) " id="svg_23">
    <g stroke="null" id="svg_24">
     <path stroke="null" id="svg_25" d="m1602.516481,1226.515832l-32,0l0,-40c0.016,-4.418 -3.553,-8.013 -7.972,-8.028c-0.234,-0.001 -0.467,0.009 -0.7,0.028l-20.872,1.76c-50.615,4.186 -100.259,16.291 -147.12,35.872l-23.336,9.704l-23.312,-9.672c-46.866,-19.584 -96.516,-31.691 -147.136,-35.88l-20.88,-1.784c-4.403,-0.371 -8.273,2.897 -8.644,7.3c-0.02,0.233 -0.029,0.467 -0.028,0.7l0,40l-32,0c-4.418,0 -8,3.582 -8,8l0,336c0,4.418 3.582,8 8,8l464,0c4.418,0 8,-3.582 8,-8l0,-336c0,-4.418 -3.582,-8 -8,-8zm-456,336.016l0,-320.016l24,0l0,280c-0.015,4.166 3.169,7.646 7.32,8l21.528,1.84c5.867,0.491 11.733,1.096 17.6,1.816c1.96,0.232 3.904,0.544 5.864,0.8c3.88,0.52 7.76,1.04 11.624,1.656c2.304,0.368 4.6,0.8 6.896,1.208c3.504,0.616 7.008,1.232 10.496,1.92c2.4,0.48 4.8,1.008 7.2,1.528c3.368,0.72 6.736,1.456 10.088,2.256c2.4,0.576 4.84,1.192 7.256,1.808c3.304,0.848 6.6,1.712 9.888,2.624c2.4,0.672 4.8,1.376 7.2,2.08c3.264,0.965 6.52,1.968 9.768,3.008c2.379,0.757 4.752,1.536 7.12,2.336c3.272,1.096 6.52,2.248 9.768,3.424c2.304,0.8 4.616,1.672 6.904,2.544c0.992,0.376 1.976,0.8 2.96,1.168l-183.48,0zm216,-4.016l-14.752,-6.16c-46.83,-19.62 -96.45,-31.768 -147.048,-36l-14.2,-1.184l0,-319.952l12.208,1.024c48.966,4.046 96.993,15.754 142.328,34.696l21.464,8.912l0,318.664zm16,0l0,-318.664l21.488,-8.92c45.327,-18.938 93.346,-30.643 142.304,-34.688l12.208,-1.024l0,319.928l-13.144,1.072c-50.629,4.203 -100.293,16.279 -147.2,35.792l-15.656,6.504zm216,4l-183.36,0c1.096,-0.424 2.184,-0.872 3.28,-1.288c2.4,-0.92 4.8,-1.792 7.256,-2.664c3.136,-1.136 6.285,-2.237 9.448,-3.304c2.464,-0.8 4.944,-1.6 7.416,-2.4c3.16,-1.008 6.336,-1.968 9.512,-2.912c2.496,-0.736 5,-1.464 7.504,-2.152c3.2,-0.896 6.4,-1.736 9.68,-2.56c2.48,-0.632 4.968,-1.264 7.464,-1.856c3.328,-0.8 6.68,-1.52 10.032,-2.232c2.4,-0.52 4.8,-1.056 7.248,-1.536c3.52,-0.696 7.056,-1.312 10.584,-1.928c2.288,-0.4 4.568,-0.8 6.864,-1.2c3.944,-0.624 7.896,-1.16 11.856,-1.688c1.896,-0.248 3.792,-0.552 5.696,-0.8c5.867,-0.709 11.763,-1.315 17.688,-1.816l20.488,-1.664c4.16,-0.342 7.358,-3.826 7.344,-8l0,-280l24,0l0,320z"/>
    </g>
   </g>
   <g stroke="null" transform="matrix(0.8788409283674266,0,0,0.8788409283674266,-941.8869169315585,-970.4585564642257) " id="svg_26"/>
   <g stroke="null" transform="matrix(0.8788409283674266,0,0,0.8788409283674266,-941.8869169315585,-970.4585564642257) " id="svg_27"/>
   <g stroke="null" transform="matrix(0.8788409283674266,0,0,0.8788409283674266,-941.8869169315585,-970.4585564642257) " id="svg_28"/>
   <g stroke="null" transform="matrix(0.8788409283674266,0,0,0.8788409283674266,-941.8869169315585,-970.4585564642257) " id="svg_29"/>
   <g stroke="null" transform="matrix(0.8788409283674266,0,0,0.8788409283674266,-941.8869169315585,-970.4585564642257) " id="svg_30"/>
   <g stroke="null" transform="matrix(0.8788409283674266,0,0,0.8788409283674266,-941.8869169315585,-970.4585564642257) " id="svg_31"/>
   <g stroke="null" transform="matrix(0.8788409283674266,0,0,0.8788409283674266,-941.8869169315585,-970.4585564642257) " id="svg_32"/>
   <g stroke="null" transform="matrix(0.8788409283674266,0,0,0.8788409283674266,-941.8869169315585,-970.4585564642257) " id="svg_33"/>
   <g stroke="null" transform="matrix(0.8788409283674266,0,0,0.8788409283674266,-941.8869169315585,-970.4585564642257) " id="svg_34"/>
   <g stroke="null" transform="matrix(0.8788409283674266,0,0,0.8788409283674266,-941.8869169315585,-970.4585564642257) " id="svg_35"/>
   <g stroke="null" transform="matrix(0.8788409283674266,0,0,0.8788409283674266,-941.8869169315585,-970.4585564642257) " id="svg_36"/>
   <g stroke="null" transform="matrix(0.8788409283674266,0,0,0.8788409283674266,-941.8869169315585,-970.4585564642257) " id="svg_37"/>
   <g stroke="null" transform="matrix(0.8788409283674266,0,0,0.8788409283674266,-941.8869169315585,-970.4585564642257) " id="svg_38"/>
   <g stroke="null" transform="matrix(0.8788409283674266,0,0,0.8788409283674266,-941.8869169315585,-970.4585564642257) " id="svg_39"/>
   <g stroke="null" transform="matrix(0.8788409283674266,0,0,0.8788409283674266,-941.8869169315585,-970.4585564642257) " id="svg_40"/>
  </g>
  <line stroke="#000000" transform="rotate(-0.779315710067749 345.47341918945415,188.01770019530926) " stroke-linecap="undefined" stroke-linejoin="undefined" id="svg_42" y2="172.858816" x2="402.823033" y1="203.176613" x1="288.123798" fill-opacity="null" stroke-width="7" fill="none"/>
  <line stroke="#000000" transform="rotate(-0.779315710067749 347.2278137207106,216.08779907226614) " stroke-linecap="undefined" stroke-linejoin="undefined" id="svg_44" y2="200.928915" x2="404.577414" y1="231.246712" x1="289.878179" fill-opacity="null" stroke-width="7" fill="none"/>
  <line stroke="#000000" transform="rotate(-0.779315710067749 348.9821777343749,242.40351867675946) " stroke-linecap="undefined" stroke-linejoin="undefined" id="svg_45" y2="227.244634" x2="406.331795" y1="257.562431" x1="291.632561" fill-opacity="null" stroke-width="7" fill="none"/>
 </g>
</svg>